<svg width="301" height="210" viewBox="0 0 301 210" fill="none" xmlns="http://www.w3.org/2000/svg">
<g clip-path="url(#clip0)">
<path d="M59.9723 210C93.094 210 119.945 207.955 119.945 205.433C119.945 202.91 93.094 200.865 59.9723 200.865C26.8505 200.865 0 202.91 0 205.433C0 207.955 26.8505 210 59.9723 210Z" fill="#E6E6E6"/>
<path d="M45.8417 46.5953C56.2787 42.1439 69.2781 44.9643 81.9734 46.9217C82.0916 44.5512 83.5235 41.6662 82.0235 40.0124C80.2011 38.0032 80.3689 35.8921 81.4655 33.7688C84.2697 28.3393 80.2521 22.5619 76.1954 17.7581C75.2811 16.6778 74.1256 15.829 72.8227 15.2806C71.5197 14.7323 70.1062 14.4998 68.6969 14.6021L61.1823 15.1404C59.3537 15.2713 57.6086 15.9592 56.1805 17.1119C54.7525 18.2645 53.7095 19.8271 53.1912 21.5904C51.3969 24.0375 50.4365 26.4778 51.0412 28.9054C48.3536 30.7471 47.902 32.9703 49.1097 35.4765C50.1338 37.0546 50.1229 38.5906 49.0631 40.0842C47.6713 41.9883 46.6053 44.1115 45.9088 46.3667L45.8417 46.5953Z" fill="#2F2E41"/>
<path d="M293.867 181.542H81.149C79.2573 181.542 77.4431 180.788 76.1055 179.447C74.7679 178.105 74.0164 176.286 74.0164 174.389C151.127 165.403 226.788 165.403 301 174.389C301 176.286 300.249 178.105 298.911 179.447C297.573 180.788 295.759 181.542 293.867 181.542Z" fill="#2F2E41"/>
<path d="M301 174.81L74.0164 174.389L100.323 130.003L100.449 129.793V31.9707C100.449 30.7833 100.682 29.6076 101.135 28.5106C101.588 27.4136 102.252 26.4169 103.089 25.5773C103.927 24.7377 104.921 24.0717 106.015 23.6174C107.109 23.163 108.281 22.9293 109.465 22.9294H264.292C265.477 22.9293 266.649 23.163 267.743 23.6174C268.837 24.0717 269.831 24.7377 270.668 25.5773C271.505 26.4169 272.17 27.4136 272.623 28.5106C273.076 29.6076 273.309 30.7833 273.309 31.9707V130.466L301 174.81Z" fill="#3F3D56"/>
<path d="M109.26 29.2402C108.481 29.2411 107.735 29.5516 107.184 30.1038C106.633 30.6559 106.324 31.4044 106.323 32.1853V121.378C106.324 122.159 106.633 122.908 107.184 123.46C107.735 124.012 108.481 124.323 109.26 124.323H265.757C266.535 124.322 267.282 124.012 267.832 123.46C268.383 122.908 268.693 122.159 268.694 121.378V32.1853C268.693 31.4045 268.383 30.6559 267.832 30.1038C267.282 29.5517 266.535 29.2411 265.757 29.2402H109.26Z" fill="white"/>
<path d="M109.915 136.104C109.675 136.104 109.439 136.173 109.237 136.304C109.034 136.434 108.873 136.619 108.772 136.838L100.666 154.509C100.578 154.701 100.539 154.912 100.554 155.124C100.568 155.335 100.636 155.539 100.75 155.717C100.863 155.895 101.02 156.042 101.205 156.143C101.391 156.245 101.598 156.298 101.809 156.298H272.272C272.486 156.298 272.697 156.243 272.885 156.139C273.072 156.034 273.23 155.883 273.342 155.7C273.455 155.517 273.519 155.308 273.529 155.093C273.539 154.878 273.493 154.664 273.397 154.472L264.586 136.801C264.483 136.591 264.322 136.415 264.123 136.291C263.924 136.168 263.695 136.103 263.461 136.104H109.915Z" fill="#2F2E41"/>
<path d="M186.879 27.7677C187.922 27.7677 188.767 26.92 188.767 25.8744C188.767 24.8288 187.922 23.9812 186.879 23.9812C185.836 23.9812 184.991 24.8288 184.991 25.8744C184.991 26.92 185.836 27.7677 186.879 27.7677Z" fill="white"/>
<path d="M170.124 159.664C169.847 159.664 169.578 159.756 169.359 159.925C169.139 160.094 168.981 160.33 168.909 160.598L166.875 168.171C166.825 168.358 166.818 168.554 166.856 168.744C166.893 168.934 166.974 169.113 167.091 169.267C167.209 169.421 167.36 169.545 167.533 169.631C167.707 169.717 167.897 169.761 168.091 169.761H206.759C206.96 169.761 207.157 169.713 207.336 169.621C207.514 169.529 207.668 169.395 207.784 169.231C207.901 169.067 207.976 168.878 208.005 168.679C208.033 168.48 208.014 168.276 207.948 168.086L205.334 160.513C205.248 160.265 205.088 160.05 204.874 159.898C204.661 159.746 204.406 159.664 204.144 159.664H170.124Z" fill="#2F2E41"/>
<path d="M273.309 128.32V130.003H100.323L100.453 129.793V128.32H273.309Z" fill="#2F2E41"/>
<path d="M268.484 58.9011C284.704 58.9011 297.853 45.7156 297.853 29.4506C297.853 13.1855 284.704 0 268.484 0C252.264 0 239.115 13.1855 239.115 29.4506C239.115 45.7156 252.264 58.9011 268.484 58.9011Z" fill="#6C63FF"/>
<path d="M280.651 42.2826H256.317C255.872 42.2822 255.445 42.1047 255.13 41.7892C254.816 41.4737 254.639 41.0459 254.638 40.5997V25.8744C254.639 25.4282 254.816 25.0005 255.13 24.685C255.445 24.3695 255.872 24.192 256.317 24.1915H280.651C281.096 24.192 281.523 24.3695 281.837 24.685C282.152 25.0005 282.329 25.4282 282.329 25.8744V40.5997C282.329 41.0459 282.152 41.4737 281.837 41.7892C281.523 42.1047 281.096 42.2822 280.651 42.2826ZM256.317 25.8744V40.5997H280.652L280.651 25.8744L256.317 25.8744Z" fill="white"/>
<path d="M276.036 25.8744H260.932V19.1429C260.932 14.2672 264.108 10.7284 268.484 10.7284C272.86 10.7284 276.036 14.2672 276.036 19.1429L276.036 25.8744ZM262.61 24.1915H274.358V19.1429C274.358 15.1795 271.942 12.4113 268.484 12.4113C265.025 12.4113 262.61 15.1795 262.61 19.1429L262.61 24.1915Z" fill="white"/>
<path d="M268.484 34.4992C269.411 34.4992 270.162 33.7458 270.162 32.8163C270.162 31.8869 269.411 31.1335 268.484 31.1335C267.557 31.1335 266.806 31.8869 266.806 32.8163C266.806 33.7458 267.557 34.4992 268.484 34.4992Z" fill="white"/>
<path d="M247.981 94.07H127.035C126.441 94.0693 125.872 93.8325 125.452 93.4114C125.032 92.9904 124.796 92.4195 124.795 91.8241V61.7395C124.796 61.1441 125.032 60.5732 125.452 60.1522C125.872 59.7311 126.441 59.4943 127.035 59.4936H247.981C248.575 59.4943 249.145 59.7311 249.564 60.1522C249.984 60.5732 250.221 61.1441 250.221 61.7395V91.8241C250.221 92.4195 249.984 92.9904 249.564 93.4114C249.145 93.8325 248.575 94.0693 247.981 94.07ZM127.035 60.392C126.679 60.3924 126.337 60.5345 126.085 60.7871C125.833 61.0397 125.691 61.3822 125.691 61.7395V91.8241C125.691 92.1814 125.833 92.5239 126.085 92.7765C126.337 93.0292 126.679 93.1713 127.035 93.1716H247.981C248.338 93.1713 248.679 93.0292 248.931 92.7765C249.183 92.5239 249.325 92.1814 249.325 91.8241V61.7395C249.325 61.3822 249.183 61.0397 248.931 60.7871C248.679 60.5344 248.338 60.3923 247.981 60.3919L127.035 60.392Z" fill="#E6E6E6"/>
<path d="M146.124 84.7762C151.162 84.7762 155.247 80.6802 155.247 75.6274C155.247 70.5747 151.162 66.4787 146.124 66.4787C141.085 66.4787 137 70.5747 137 75.6274C137 80.6802 141.085 84.7762 146.124 84.7762Z" fill="#E6E6E6"/>
<path d="M166.899 69.5283C166.699 69.528 166.501 69.5672 166.316 69.6437C166.131 69.7201 165.963 69.8324 165.822 69.974C165.68 70.1157 165.568 70.2839 165.492 70.469C165.415 70.6542 165.376 70.8526 165.376 71.0531C165.376 71.2535 165.415 71.452 165.492 71.6371C165.568 71.8223 165.68 71.9905 165.822 72.1321C165.963 72.2737 166.131 72.386 166.316 72.4625C166.501 72.539 166.699 72.5782 166.899 72.5779H238.584C238.987 72.5779 239.374 72.4172 239.659 72.1313C239.944 71.8453 240.104 71.4575 240.104 71.0531C240.104 70.6487 239.944 70.2608 239.659 69.9749C239.374 69.6889 238.987 69.5283 238.584 69.5283H166.899Z" fill="#E6E6E6"/>
<path d="M166.899 78.677C166.495 78.677 166.109 78.8377 165.823 79.1236C165.538 79.4096 165.378 79.7974 165.378 80.2018C165.378 80.6062 165.538 80.9941 165.823 81.28C166.109 81.566 166.495 81.7266 166.899 81.7266H197.745C198.148 81.7266 198.535 81.566 198.82 81.28C199.105 80.9941 199.265 80.6062 199.265 80.2018C199.265 79.7974 199.105 79.4096 198.82 79.1236C198.535 78.8377 198.148 78.677 197.745 78.677H166.899Z" fill="#E6E6E6"/>
<path d="M100.025 79.2938L77.6674 91.2132L77.3844 81.2804C84.6819 80.0588 91.6247 77.9319 98.0443 74.4694L100.383 68.6763C100.637 68.0451 101.052 67.4911 101.584 67.0688C102.117 66.6466 102.75 66.3705 103.422 66.2677C104.093 66.1649 104.779 66.2389 105.414 66.4825C106.048 66.7261 106.608 67.1308 107.039 67.6571C107.67 68.427 107.985 69.4085 107.921 70.4028C107.857 71.3971 107.418 72.3298 106.694 73.0119L100.025 79.2938Z" fill="#FFB8B8"/>
<path d="M45.396 148.112C45.2329 147.512 45.1983 146.884 45.2944 146.27C45.3905 145.656 45.6152 145.069 45.9537 144.548L50.8651 136.99C52.0268 135.202 53.8093 133.911 55.8667 133.366C57.9242 132.822 60.1099 133.064 61.9998 134.044C59.9357 137.567 60.2235 140.658 62.7127 143.344C58.8485 145.236 55.277 147.677 52.109 150.593C51.5306 150.988 50.8664 151.239 50.1717 151.325C49.477 151.411 48.7719 151.329 48.1151 151.086C47.4584 150.844 46.8689 150.447 46.396 149.93C45.923 149.412 45.5802 148.789 45.396 148.112Z" fill="#2F2E41"/>
<path d="M101.044 138.229C100.3 139.471 99.2514 140.501 97.997 141.219C96.7427 141.938 95.3253 142.321 93.8808 142.332L61.2528 142.58L59.8377 134.35L74.2713 130.093L62.1018 120.728L75.4033 105.119L99.563 127.699C100.975 129.019 101.893 130.785 102.162 132.701C102.432 134.618 102.037 136.569 101.044 138.229Z" fill="#2F2E41"/>
<path d="M56.1586 194.514H48.5173C41.6565 147.356 34.6729 100.066 55.3096 82.4156L79.6485 86.3887L76.5354 107.106L62.9509 122.714L56.1586 194.514Z" fill="#2F2E41"/>
<path d="M62.8757 205.197C62.2775 205.36 61.6515 205.395 61.039 205.299C60.4264 205.202 59.8412 204.977 59.3217 204.638L51.0248 203.519C49.242 202.355 47.9541 200.567 47.4112 198.504C46.8683 196.441 47.109 194.249 48.0865 192.354C51.6002 194.424 54.6824 194.135 57.3608 191.639C59.2533 195.47 62.3715 195.237 65.3495 198.465C65.7438 199.045 65.9942 199.711 66.0798 200.408C66.1655 201.104 66.0839 201.811 65.8419 202.47C65.5999 203.128 65.2044 203.72 64.6884 204.194C64.1725 204.668 63.551 205.012 62.8757 205.197Z" fill="#2F2E41"/>
<path d="M74.2713 50.9145L60.1207 47.509C62.4709 42.6851 62.6644 37.3174 61.5358 31.6166L71.1582 31.3328C71.4597 38.422 72.3718 45.0451 74.2713 50.9145Z" fill="#FFB8B8"/>
<path d="M78.1604 94.9335C67.8593 101.972 60.5808 95.1744 55.0265 84.6859C55.7983 78.268 54.5486 70.5875 52.2341 62.2422C51.2048 58.5613 51.5891 54.6271 53.3111 51.2165C55.0332 47.8059 57.9679 45.1666 61.5358 43.8197L73.7053 48.928C84.0386 57.3741 86.0725 66.5229 82.1956 76.1722L78.1604 94.9335Z" fill="#6C63FF"/>
<path d="M48.5173 58.0093L37.1968 63.969L57.2906 75.8883L60.0865 82.804C60.2731 83.2656 60.3641 83.7604 60.3537 84.2584C60.3434 84.7564 60.232 85.247 60.0264 85.7004C59.8208 86.1538 59.5253 86.5605 59.1578 86.8956C58.7903 87.2307 58.3587 87.4873 57.8891 87.6496C57.3553 87.8342 56.7862 87.8924 56.2263 87.8195C55.6663 87.7467 55.1308 87.5449 54.6616 87.2299C54.1925 86.9149 53.8024 86.4953 53.522 86.0039C53.2415 85.5125 53.0783 84.9627 53.0452 84.3975L52.7624 79.5776L27.2234 71.1265C26.363 70.8417 25.5784 70.3644 24.9291 69.7306C24.2799 69.0967 23.783 68.3231 23.4761 67.4682C23.0287 66.222 23.0059 64.8623 23.4113 63.6018C23.8167 62.3413 24.6274 61.2511 25.7165 60.5018L46.2532 46.3738L48.5173 58.0093Z" fill="#FFB8B8"/>
<path d="M59.8377 59.1445C55.1164 57.0697 50.8232 59.3236 45.4041 61.1311L44.5551 46.09C49.936 43.2142 55.0662 42.4388 59.8377 44.6711L59.8377 59.1445Z" fill="#6C63FF"/>
<path d="M65.4855 38.7831C70.4752 38.7831 74.5201 34.727 74.5201 29.7236C74.5201 24.7201 70.4752 20.664 65.4855 20.664C60.4959 20.664 56.4509 24.7201 56.4509 29.7236C56.4509 34.727 60.4959 38.7831 65.4855 38.7831Z" fill="#FFB8B8"/>
<path d="M76.2938 28.5805C67.3488 29.459 60.5327 27.992 56.1765 23.8151V20.4513H75.5347L76.2938 28.5805Z" fill="#2F2E41"/>
<circle cx="143.271" cy="71.2712" r="1.27119" fill="#6C63FF"/>
<rect x="142.102" y="73.1525" width="2.54237" height="2.54237" fill="#6C63FF"/>
<rect x="142.102" y="76.3051" width="2.54237" height="2.54237" fill="#6C63FF"/>
<rect x="142.102" y="79.4576" width="2.54237" height="2.54237" fill="#6C63FF"/>
<rect x="145.254" y="73.1525" width="2.54237" height="2.54237" fill="#6C63FF"/>
<rect x="145.254" y="70" width="2.54237" height="2.54237" fill="#6C63FF"/>
<rect x="148.407" y="70" width="2.54237" height="2.54237" fill="#6C63FF"/>
<rect x="148.407" y="76.3051" width="2.54237" height="2.54237" fill="#6C63FF"/>
<rect x="145.254" y="76.3051" width="2.54237" height="2.54237" fill="#6C63FF"/>
<rect x="145.254" y="79.4576" width="2.54237" height="2.54237" fill="#6C63FF"/>
</g>
<defs>
<clipPath id="clip0">
<rect width="301" height="210" fill="white"/>
</clipPath>
</defs>
</svg>
