<svg width="284" height="254" viewBox="0 0 284 254" fill="none" xmlns="http://www.w3.org/2000/svg">
<path d="M145.446 0.554279L136.205 2.929L22.3559 32.1861L13.115 34.5609C8.62963 35.7189 4.78834 38.6027 2.43392 42.5795C0.079487 46.5563 -0.595806 51.3014 0.556188 55.7738L40.6266 210.616C41.7887 215.086 44.6825 218.914 48.6733 221.26C52.664 223.606 57.4257 224.279 61.9137 223.131L61.9376 223.125L194.221 189.131L194.245 189.125C198.73 187.967 202.571 185.083 204.926 181.106C207.28 177.129 207.956 172.384 206.804 167.912L166.733 13.0694C165.571 8.59965 162.677 4.77174 158.686 2.4255C154.696 0.0792621 149.934 -0.593692 145.446 0.554279Z" fill="#F2F2F2"/>
<path d="M146.702 5.40848L135.757 8.22118L25.3159 36.6024L14.3709 39.4151C11.1767 40.2397 8.44122 42.2933 6.76457 45.1253C5.08791 47.9573 4.60701 51.3364 5.42738 54.5213L45.4978 209.364C46.3253 212.547 48.3861 215.273 51.228 216.944C54.0699 218.614 57.4608 219.094 60.6568 218.276L60.6807 218.27L192.964 184.276L192.988 184.269C196.182 183.445 198.918 181.391 200.594 178.559C202.271 175.727 202.752 172.348 201.931 169.163L161.861 14.3208C161.033 11.1378 158.973 8.41189 156.131 6.74107C153.289 5.07026 149.898 4.59102 146.702 5.40848Z" fill="white"/>
<path d="M138.437 55.5506L71.5186 72.7475C70.7712 72.9396 69.9778 72.8279 69.313 72.437C68.6482 72.0462 68.1665 71.4082 67.9737 70.6634C67.781 69.9186 67.8931 69.128 68.2853 68.4655C68.6775 67.803 69.3177 67.3229 70.0651 67.1309L136.984 49.9339C137.731 49.7426 138.524 49.8548 139.188 50.2457C139.852 50.6366 140.334 51.2743 140.526 52.0187C140.719 52.7631 140.607 53.5532 140.216 54.2155C139.824 54.8777 139.184 55.3579 138.437 55.5506Z" fill="#F2F2F2"/>
<path d="M152.515 62.0413L73.9713 82.2255C73.2239 82.4176 72.4305 82.3059 71.7658 81.9151C71.101 81.5242 70.6192 80.8862 70.4265 80.1414C70.2337 79.3966 70.3458 78.606 70.738 77.9435C71.1302 77.2811 71.7704 76.801 72.5179 76.6089L151.062 56.4246C151.809 56.2326 152.602 56.3442 153.267 56.7351C153.932 57.1259 154.414 57.7639 154.606 58.5087C154.799 59.2536 154.687 60.0442 154.295 60.7066C153.903 61.3691 153.262 61.8492 152.515 62.0413Z" fill="#F2F2F2"/>
<path d="M149.429 98.0263L82.5105 115.223C82.1405 115.318 81.7552 115.34 81.3768 115.287C80.9983 115.233 80.6341 115.106 80.305 114.913C79.9758 114.719 79.6881 114.463 79.4583 114.159C79.2285 113.854 79.0611 113.508 78.9657 113.139C78.8702 112.77 78.8486 112.386 78.9021 112.009C78.9555 111.632 79.083 111.269 79.2772 110.941C79.4714 110.613 79.7285 110.326 80.0339 110.097C80.3393 109.868 80.687 109.702 81.0571 109.607L147.976 92.4097C148.346 92.3146 148.731 92.293 149.11 92.3463C149.488 92.3996 149.852 92.5266 150.182 92.7201C150.511 92.9136 150.798 93.1699 151.028 93.4742C151.258 93.7785 151.425 94.125 151.521 94.4938C151.616 94.8626 151.638 95.2465 151.584 95.6236C151.531 96.0007 151.404 96.3636 151.209 96.6917C151.015 97.0197 150.758 97.3064 150.453 97.5354C150.147 97.7644 149.8 97.9312 149.429 98.0263Z" fill="#F2F2F2"/>
<path d="M163.507 104.517L84.9633 124.701C84.5932 124.796 84.208 124.818 83.8295 124.765C83.4511 124.711 83.0869 124.584 82.7577 124.391C82.4286 124.197 82.1409 123.941 81.9111 123.637C81.6813 123.332 81.5139 122.986 81.4184 122.617C81.323 122.248 81.3014 121.864 81.3548 121.487C81.4083 121.11 81.5358 120.747 81.73 120.419C81.9242 120.091 82.1813 119.805 82.4867 119.576C82.7921 119.347 83.1397 119.18 83.5098 119.085L162.054 98.9004C162.801 98.7083 163.594 98.82 164.259 99.2108C164.924 99.6016 165.406 100.24 165.598 100.984C165.791 101.729 165.679 102.52 165.287 103.182C164.895 103.845 164.254 104.325 163.507 104.517Z" fill="#F2F2F2"/>
<path d="M160.421 140.502L93.5025 157.699C92.7553 157.89 91.9624 157.778 91.298 157.387C90.6336 156.997 90.1522 156.359 89.9596 155.614C89.7669 154.87 89.8788 154.08 90.2706 153.417C90.6624 152.755 91.3021 152.275 92.049 152.082L158.968 134.885C159.715 134.693 160.509 134.805 161.173 135.196C161.838 135.587 162.32 136.225 162.513 136.97C162.706 137.714 162.593 138.505 162.201 139.167C161.809 139.83 161.169 140.31 160.421 140.502Z" fill="#F2F2F2"/>
<path d="M174.499 146.993L95.9552 167.177C95.585 167.272 95.1996 167.294 94.8209 167.241C94.4422 167.188 94.0777 167.061 93.7483 166.868C93.4188 166.674 93.1309 166.418 92.9009 166.114C92.6709 165.809 92.5034 165.463 92.4079 165.094C92.3124 164.725 92.2908 164.34 92.3444 163.963C92.3979 163.586 92.5256 163.223 92.7201 162.895C92.9145 162.566 93.172 162.28 93.4777 162.051C93.7834 161.822 94.1314 161.655 94.5018 161.56L173.045 141.376C173.793 141.184 174.586 141.296 175.251 141.687C175.916 142.077 176.398 142.715 176.59 143.46C176.783 144.205 176.671 144.996 176.279 145.658C175.887 146.321 175.246 146.801 174.499 146.993Z" fill="#F2F2F2"/>
<path d="M60.0946 90.3804L36.4126 96.4662C36.0542 96.5579 35.674 96.5042 35.3554 96.3168C35.0367 96.1295 34.8056 95.8238 34.7128 95.4669L29.2767 74.4601C29.1847 74.103 29.2386 73.7241 29.4266 73.4065C29.6146 73.089 29.9213 72.8587 30.2795 72.7662L53.9614 66.6804C54.3198 66.5887 54.7 66.6425 55.0187 66.8298C55.3373 67.0172 55.5684 67.3228 55.6612 67.6797L61.0974 88.6865C61.1894 89.0437 61.1355 89.4226 60.9475 89.7401C60.7595 90.0577 60.4527 90.2879 60.0946 90.3804Z" fill="#E6E6E6"/>
<path d="M71.0865 132.856L47.4046 138.942C47.0462 139.034 46.666 138.98 46.3473 138.793C46.0286 138.605 45.7976 138.299 45.7048 137.943L40.2686 116.936C40.1766 116.579 40.2306 116.2 40.4186 115.882C40.6066 115.565 40.9133 115.334 41.2714 115.242L64.9534 109.156C65.3118 109.064 65.692 109.118 66.0106 109.306C66.3293 109.493 66.5604 109.799 66.6532 110.155L72.0893 131.162C72.1813 131.519 72.1274 131.898 71.9394 132.216C71.7514 132.533 71.4447 132.764 71.0865 132.856Z" fill="#E6E6E6"/>
<path d="M82.0784 175.332L58.3965 181.418C58.0381 181.509 57.6579 181.456 57.3392 181.268C57.0206 181.081 56.7895 180.775 56.6967 180.418L51.2605 159.412C51.1685 159.054 51.2225 158.675 51.4105 158.358C51.5985 158.04 51.9052 157.81 52.2634 157.718L75.9453 151.632C76.3037 151.54 76.6839 151.594 77.0026 151.781C77.3212 151.969 77.5523 152.274 77.6451 152.631L83.0813 173.638C83.1733 173.995 83.1193 174.374 82.9313 174.692C82.7433 175.009 82.4366 175.239 82.0784 175.332Z" fill="#E6E6E6"/>
<path d="M237.74 39.8044H101.079C96.446 39.8096 92.0038 41.6461 88.7274 44.9111C85.451 48.1761 83.6081 52.6028 83.6029 57.2202V217.128C83.6081 221.746 85.451 226.173 88.7274 229.438C92.0038 232.702 96.446 234.539 101.079 234.544H237.74C242.373 234.539 246.815 232.702 250.092 229.438C253.368 226.173 255.211 221.746 255.216 217.128V57.2202C255.211 52.6028 253.368 48.1761 250.092 44.9111C246.815 41.6461 242.373 39.8096 237.74 39.8044Z" fill="#E6E6E6"/>
<path d="M237.74 44.818H101.079C97.7799 44.8217 94.6164 46.1295 92.2833 48.4546C89.9501 50.7796 88.6377 53.932 88.6339 57.2202V217.128C88.6377 220.417 89.9501 223.569 92.2833 225.894C94.6164 228.219 97.7799 229.527 101.079 229.531H237.74C241.04 229.527 244.203 228.219 246.536 225.894C248.869 223.569 250.182 220.417 250.185 217.128V57.2202C250.182 53.9321 248.869 50.7797 246.536 48.4546C244.203 46.1296 241.04 44.8217 237.74 44.818Z" fill="white"/>
<path d="M252.097 254C269.717 254 284 239.766 284 222.208C284 204.65 269.717 190.416 252.097 190.416C234.478 190.416 220.194 204.65 220.194 222.208C220.194 239.766 234.478 254 252.097 254Z" fill="#6C63FF"/>
<path d="M217.172 132.687H148.064C147.682 132.688 147.303 132.613 146.95 132.467C146.596 132.322 146.275 132.108 146.004 131.839C145.734 131.57 145.519 131.25 145.372 130.898C145.226 130.546 145.151 130.168 145.151 129.787C145.151 129.406 145.226 129.029 145.372 128.676C145.519 128.324 145.734 128.004 146.004 127.735C146.275 127.466 146.596 127.252 146.95 127.107C147.303 126.961 147.682 126.886 148.064 126.887H217.172C217.944 126.888 218.683 127.194 219.228 127.737C219.773 128.281 220.079 129.018 220.079 129.787C220.079 130.556 219.773 131.293 219.228 131.837C218.683 132.38 217.944 132.686 217.172 132.687Z" fill="#E6E6E6"/>
<path d="M229.178 142.475H148.064C147.682 142.476 147.303 142.401 146.95 142.256C146.596 142.11 146.275 141.896 146.004 141.627C145.734 141.358 145.519 141.038 145.372 140.686C145.226 140.334 145.151 139.956 145.151 139.575C145.151 139.194 145.226 138.817 145.372 138.465C145.519 138.112 145.734 137.793 146.004 137.523C146.275 137.254 146.596 137.04 146.95 136.895C147.303 136.749 147.682 136.675 148.064 136.675H229.178C229.949 136.675 230.69 136.981 231.235 137.524C231.781 138.068 232.088 138.806 232.088 139.575C232.088 140.344 231.781 141.082 231.235 141.626C230.69 142.17 229.949 142.475 229.178 142.475Z" fill="#E6E6E6"/>
<path d="M217.172 176.553H148.064C147.682 176.553 147.303 176.478 146.95 176.333C146.596 176.187 146.275 175.974 146.004 175.704C145.734 175.435 145.519 175.115 145.372 174.763C145.226 174.411 145.151 174.034 145.151 173.652C145.151 173.271 145.226 172.894 145.372 172.542C145.519 172.19 145.734 171.87 146.004 171.601C146.275 171.331 146.596 171.118 146.95 170.972C147.303 170.826 147.682 170.752 148.064 170.752H217.172C217.944 170.752 218.685 171.058 219.23 171.602C219.776 172.146 220.083 172.883 220.083 173.652C220.083 174.422 219.776 175.159 219.23 175.703C218.685 176.247 217.944 176.553 217.172 176.553Z" fill="#E6E6E6"/>
<path d="M229.178 186.341H148.064C147.682 186.341 147.303 186.266 146.95 186.121C146.596 185.975 146.275 185.762 146.004 185.492C145.734 185.223 145.519 184.903 145.372 184.551C145.226 184.199 145.151 183.822 145.151 183.441C145.151 183.059 145.226 182.682 145.372 182.33C145.519 181.978 145.734 181.658 146.004 181.389C146.275 181.119 146.596 180.906 146.95 180.76C147.303 180.615 147.682 180.54 148.064 180.54H229.178C229.56 180.54 229.939 180.615 230.292 180.76C230.646 180.906 230.967 181.119 231.238 181.389C231.508 181.658 231.723 181.978 231.869 182.33C232.016 182.682 232.091 183.059 232.091 183.441C232.091 183.822 232.016 184.199 231.869 184.551C231.723 184.903 231.508 185.223 231.238 185.492C230.967 185.762 230.646 185.975 230.292 186.121C229.939 186.266 229.56 186.341 229.178 186.341Z" fill="#E6E6E6"/>
<path d="M132.584 146.919H108.127C107.757 146.918 107.402 146.772 107.141 146.511C106.879 146.25 106.732 145.897 106.731 145.528V123.834C106.732 123.465 106.879 123.112 107.141 122.851C107.402 122.59 107.757 122.444 108.127 122.443H132.584C132.954 122.444 133.308 122.59 133.57 122.851C133.832 123.112 133.979 123.465 133.979 123.834V145.528C133.979 145.897 133.832 146.25 133.57 146.511C133.308 146.772 132.954 146.918 132.584 146.919Z" fill="#E6E6E6"/>
<path d="M132.584 190.784H108.127C107.757 190.784 107.402 190.637 107.141 190.376C106.879 190.116 106.732 189.762 106.731 189.393V167.699C106.732 167.331 106.879 166.977 107.141 166.717C107.402 166.456 107.757 166.309 108.127 166.309H132.584C132.954 166.309 133.308 166.456 133.57 166.717C133.832 166.977 133.979 167.331 133.979 167.699V189.393C133.979 189.762 133.832 190.116 133.57 190.376C133.308 190.637 132.954 190.784 132.584 190.784Z" fill="#E6E6E6"/>
<path d="M217.249 83.8564H166.298C165.527 83.8564 164.786 83.5508 164.241 83.007C163.695 82.4631 163.388 81.7254 163.388 80.9562C163.388 80.187 163.695 79.4493 164.241 78.9055C164.786 78.3616 165.527 78.056 166.298 78.056H217.249C218.021 78.056 218.761 78.3616 219.307 78.9055C219.853 79.4493 220.159 80.187 220.159 80.9562C220.159 81.7254 219.853 82.4631 219.307 83.007C218.761 83.5508 218.021 83.8564 217.249 83.8564Z" fill="#CCCCCC"/>
<path d="M229.254 93.6445H166.298C165.916 93.6445 165.538 93.5695 165.185 93.4238C164.832 93.278 164.511 93.0644 164.241 92.7951C163.97 92.5258 163.756 92.2061 163.61 91.8542C163.463 91.5023 163.388 91.1252 163.388 90.7444C163.388 90.3635 163.463 89.9864 163.61 89.6345C163.756 89.2826 163.97 88.9629 164.241 88.6936C164.511 88.4243 164.832 88.2107 165.185 88.0649C165.538 87.9192 165.916 87.8442 166.298 87.8442H229.254C230.026 87.8442 230.766 88.1497 231.312 88.6936C231.858 89.2375 232.165 89.9752 232.165 90.7444C232.165 91.5135 231.858 92.2512 231.312 92.7951C230.766 93.339 230.026 93.6445 229.254 93.6445Z" fill="#CCCCCC"/>
<path d="M155.022 105.507H108.05C107.68 105.506 107.325 105.36 107.064 105.099C106.802 104.838 106.655 104.485 106.655 104.116V67.5846C106.655 67.2159 106.802 66.8624 107.064 66.6017C107.325 66.341 107.68 66.1944 108.05 66.194H155.022C155.392 66.1944 155.747 66.341 156.009 66.6017C156.27 66.8624 156.417 67.2159 156.418 67.5846V104.116C156.417 104.485 156.27 104.838 156.009 105.099C155.747 105.36 155.392 105.506 155.022 105.507Z" fill="#6C63FF"/>
<circle cx="241.919" cy="207.919" r="3.91949" fill="white"/>
<rect x="238.314" y="213.72" width="7.83898" height="7.83898" fill="white"/>
<rect x="238.314" y="223.441" width="7.83898" height="7.83898" fill="white"/>
<rect x="238.314" y="233.161" width="7.83898" height="7.83898" fill="white"/>
<rect x="248.034" y="213.72" width="7.83898" height="7.83898" fill="white"/>
<rect x="248.034" y="204" width="7.83898" height="7.83898" fill="white"/>
<rect x="257.754" y="204" width="7.83898" height="7.83898" fill="white"/>
<rect x="257.754" y="223.441" width="7.83898" height="7.83898" fill="white"/>
<rect x="248.034" y="223.441" width="7.83898" height="7.83898" fill="white"/>
<rect x="248.034" y="233.161" width="7.83898" height="7.83898" fill="white"/>
</svg>
