<svg width="135" height="52" viewBox="0 0 135 52" fill="none" xmlns="http://www.w3.org/2000/svg">
<path d="M6.7749 51.4199C5.87972 51.3841 5.09196 50.9186 4.41162 50.0234C3.73128 49.1283 3.14046 47.9645 2.63916 46.5322C2.13786 45.0999 1.70817 43.4707 1.3501 41.6445C1.02783 39.8184 0.759277 37.9743 0.544434 36.1123C0.32959 34.2145 0.186361 32.3883 0.114746 30.6338C0.0431315 28.8434 0.00732422 27.2679 0.00732422 25.9072C0.0431315 23.7588 0.204264 21.5566 0.490723 19.3008C0.812988 17.0091 1.15316 14.8607 1.51123 12.8555C1.90511 10.8503 2.28109 9.0778 2.63916 7.53809C3.03304 5.96257 3.3195 4.85254 3.49854 4.20801C3.74919 3.1696 4.08936 2.47135 4.51904 2.11328C4.94873 1.7194 5.75439 1.48665 6.93604 1.41504H8.2251C8.58317 1.45085 8.94124 1.48665 9.29932 1.52246C9.65739 1.55827 9.97965 1.64779 10.2661 1.79102C8.97705 4.36914 7.93864 6.98307 7.15088 9.63281C6.36312 12.2826 5.75439 14.9323 5.32471 17.582C4.89502 20.2318 4.62646 22.8457 4.51904 25.4238C4.41162 27.9661 4.39372 30.4368 4.46533 32.8359C4.53695 34.7337 4.64437 36.5062 4.7876 38.1533C4.93083 39.7646 5.16357 41.4118 5.48584 43.0947C5.80811 44.7419 6.18408 45.6908 6.61377 45.9414C7.04346 46.1921 7.49105 46.013 7.95654 45.4043C8.42204 44.8314 8.86963 43.972 9.29932 42.8262C9.76481 41.7161 10.1587 40.5882 10.481 39.4424C10.6958 38.6904 11.0181 37.6162 11.4478 36.2197C11.8774 34.7874 12.3608 33.2119 12.8979 31.4932C13.4351 29.7744 13.9901 27.984 14.563 26.1221C15.1717 24.2601 15.7267 22.5413 16.228 20.9658C16.7293 19.3545 17.159 17.958 17.5171 16.7764C17.911 15.5947 18.1795 14.807 18.3228 14.4131C18.5376 13.8402 18.8241 13.0524 19.1821 12.0498C19.576 11.0114 19.9878 9.93717 20.4175 8.82715C20.883 7.68132 21.3485 6.55339 21.814 5.44336C22.3153 4.29753 22.7808 3.29492 23.2104 2.43555C23.6401 1.61198 24.1235 1.12858 24.6606 0.985352C25.1978 0.842122 25.717 0.931641 26.2183 1.25391C26.7554 1.54036 27.2388 1.98796 27.6685 2.59668C28.134 3.2054 28.5278 3.83203 28.8501 4.47656C28.3846 4.6556 27.9012 5.10319 27.3999 5.81934C26.9344 6.49967 26.5047 7.23372 26.1108 8.02148C25.6453 8.95247 25.1978 9.95508 24.7681 11.0293C24.4816 11.8171 24.1056 12.8555 23.6401 14.1445C23.1746 15.4336 22.6733 16.848 22.1362 18.3877C21.6349 19.9274 21.0978 21.5208 20.5249 23.168C19.9878 24.8151 19.4686 26.3727 18.9673 27.8408C18.466 29.3089 18.0005 30.6338 17.5708 31.8154C17.1769 32.9613 16.8547 33.8206 16.604 34.3936C16.2459 35.2529 15.8341 36.2555 15.3687 37.4014C14.9032 38.5114 14.4019 39.6572 13.8647 40.8389C13.3634 42.0205 12.8442 43.1842 12.3071 44.3301C11.77 45.5117 11.2329 46.568 10.6958 47.499C9.94385 48.8597 9.29932 49.8444 8.76221 50.4531C8.2609 51.0977 7.59847 51.4199 6.7749 51.4199ZM41.1499 32.46C40.7918 33.8206 40.3084 35.0918 39.6997 36.2734C39.091 37.4551 38.3569 38.4756 37.4976 39.335C36.674 40.1943 35.7251 40.8568 34.6509 41.3223C33.6125 41.8236 32.4666 42.0742 31.2134 42.0742C29.7453 42.0742 28.5815 41.752 27.7222 41.1074C26.8986 40.4987 26.272 39.7288 25.8423 38.7979C25.4484 37.8669 25.2157 36.8464 25.144 35.7363C25.0366 34.6263 24.9829 33.5879 24.9829 32.6211C24.9829 31.9408 25.0724 31.1888 25.2515 30.3652C25.3947 29.5417 25.6095 28.7002 25.896 27.8408C26.1825 26.9814 26.5405 26.1221 26.9702 25.2627C27.4357 24.4033 27.9728 23.6156 28.5815 22.8994C28.7964 22.2907 29.1187 21.7536 29.5483 21.2881C30.0138 20.8226 30.533 20.4466 31.106 20.1602C31.7147 19.8379 32.3592 19.6051 33.0396 19.4619C33.7199 19.2829 34.3823 19.1934 35.0269 19.1934C35.1343 19.1934 35.2238 19.2113 35.2954 19.2471C35.4028 19.2829 35.5103 19.3187 35.6177 19.3545C36.0832 19.3903 36.6561 19.5693 37.3364 19.8916C38.0526 20.2139 38.7329 20.6973 39.3774 21.3418C40.0578 21.9863 40.6307 22.8099 41.0962 23.8125C41.5617 24.7793 41.7944 25.9609 41.7944 27.3574C41.7944 27.6439 41.7765 28.002 41.7407 28.4316C41.7049 28.8255 41.6691 29.1657 41.6333 29.4521C42.4569 29.1299 43.3162 28.736 44.2114 28.2705C45.1066 27.805 45.966 27.3216 46.7896 26.8203C47.6489 26.2832 48.4367 25.7461 49.1528 25.209C49.869 24.6719 50.4419 24.1885 50.8716 23.7588C51.2297 23.4365 51.534 23.2575 51.7847 23.2217C52.0353 23.1859 52.2144 23.2575 52.3218 23.4365C52.4292 23.6156 52.4471 23.8662 52.3755 24.1885C52.3039 24.5107 52.1069 24.8688 51.7847 25.2627C51.6056 25.4775 51.1401 25.9072 50.3882 26.5518C49.672 27.1963 48.8127 27.8945 47.8101 28.6465C46.8075 29.3984 45.7153 30.1325 44.5337 30.8486C43.3521 31.5648 42.2241 32.1019 41.1499 32.46ZM32.0728 24.2959C31.9653 24.6182 31.9116 24.9583 31.9116 25.3164C31.9116 25.8893 31.9474 26.498 32.019 27.1426C32.0907 27.7513 32.2697 28.3063 32.5562 28.8076C32.8426 29.3089 33.2902 29.7386 33.8989 30.0967C34.5435 30.4189 35.4207 30.5801 36.5308 30.5801C36.7098 30.5801 36.8888 30.5801 37.0679 30.5801C37.2469 30.5443 37.4259 30.5085 37.605 30.4727C37.7124 30.0072 37.8019 29.5954 37.8735 29.2373C37.981 28.8434 38.0347 28.5033 38.0347 28.2168C38.1063 27.5365 38.1063 26.8382 38.0347 26.1221C37.9631 25.4059 37.8198 24.7614 37.605 24.1885C37.4259 23.5798 37.1753 23.0964 36.853 22.7383C36.5666 22.3444 36.2085 22.1475 35.7788 22.1475C35.0985 22.1475 34.436 22.3444 33.7915 22.7383C33.1828 23.0964 32.6099 23.6156 32.0728 24.2959ZM28.6353 33.749C28.6353 34.3936 28.6711 35.0381 28.7427 35.6826C28.8143 36.2913 28.9575 36.8464 29.1724 37.3477C29.3872 37.8132 29.6737 38.207 30.0317 38.5293C30.3898 38.8158 30.8553 38.959 31.4282 38.959C32.0728 38.959 32.6636 38.8158 33.2007 38.5293C33.7378 38.207 34.2212 37.8132 34.6509 37.3477C35.0806 36.8464 35.4565 36.2913 35.7788 35.6826C36.1369 35.0381 36.4412 34.3757 36.6919 33.6953C36.4412 33.7311 36.1906 33.7669 35.9399 33.8027C35.7251 33.8027 35.4744 33.8027 35.188 33.8027C33.8273 33.8027 32.6457 33.4089 31.6431 32.6211C30.6763 31.7975 29.9243 30.7591 29.3872 29.5059C29.1724 30.2578 28.9933 30.9919 28.8501 31.708C28.7069 32.4242 28.6353 33.1045 28.6353 33.749ZM66.7163 27.4111C66.8595 27.1963 67.0386 27.071 67.2534 27.0352C67.5041 26.9635 67.701 26.9814 67.8442 27.0889C67.9875 27.1963 68.0591 27.3753 68.0591 27.626C68.0949 27.8766 68.0054 28.2168 67.7905 28.6465C67.0744 30.0072 66.1255 31.4753 64.9438 33.0508C63.798 34.6263 62.5806 36.1123 61.2915 37.5088C60.0024 38.8695 58.7492 39.9974 57.5317 40.8926C56.3143 41.7878 55.2938 42.2354 54.4702 42.2354C53.2886 42.2354 52.3039 42.0026 51.5161 41.5371C50.7284 41.0716 50.1017 40.4987 49.6362 39.8184C49.2065 39.138 48.9022 38.404 48.7231 37.6162C48.5441 36.7926 48.4904 36.0407 48.562 35.3604C48.5978 34.7874 48.7231 33.7669 48.938 32.2988C49.1528 30.7949 49.4393 29.0762 49.7974 27.1426C50.1554 25.1732 50.5493 23.0785 50.979 20.8584C51.4445 18.6025 51.9279 16.4362 52.4292 14.3594C51.8205 14.431 51.2118 14.5026 50.603 14.5742C49.9943 14.6458 49.4393 14.6816 48.938 14.6816C47.7922 14.6816 46.7179 14.5563 45.7153 14.3057C44.6769 14.0192 43.9071 13.7507 43.4058 13.5C43.1193 13.3568 42.994 13.1598 43.0298 12.9092C43.0656 12.6227 43.173 12.3542 43.3521 12.1035C43.5311 11.8171 43.7638 11.5843 44.0503 11.4053C44.3009 11.1904 44.5337 11.083 44.7485 11.083C45.4289 11.1546 46.1629 11.2262 46.9507 11.2979C47.7384 11.3337 48.5978 11.3337 49.5288 11.2979C50.2091 11.262 50.8537 11.2083 51.4624 11.1367C52.1069 11.0651 52.7336 10.9756 53.3423 10.8682C53.8078 9.14941 54.2554 7.66341 54.6851 6.41016C55.1506 5.12109 55.5623 4.22591 55.9204 3.72461C56.0278 3.54557 56.2606 3.40234 56.6187 3.29492C57.0125 3.15169 57.4243 3.06217 57.854 3.02637C58.2837 2.95475 58.6955 2.95475 59.0894 3.02637C59.4832 3.06217 59.7697 3.1875 59.9487 3.40234C60.1278 3.6888 60.1994 4.42285 60.1636 5.60449C60.1278 6.78613 59.9308 8.29004 59.5728 10.1162C61.0767 10.1162 62.4015 10.2057 63.5474 10.3848C64.729 10.528 65.7316 10.707 66.5552 10.9219C67.3787 11.1009 68.0412 11.2979 68.5425 11.5127C69.0438 11.6917 69.4198 11.8171 69.6704 11.8887C69.9211 11.9603 70.0464 12.1393 70.0464 12.4258C70.0822 12.7122 70.0285 13.0166 69.8853 13.3389C69.7778 13.6253 69.5809 13.876 69.2944 14.0908C69.008 14.3057 68.6857 14.3773 68.3276 14.3057C67.9696 14.2699 67.5578 14.1982 67.0923 14.0908C66.6626 13.9834 66.1255 13.8939 65.481 13.8223C64.8722 13.7507 64.1382 13.679 63.2788 13.6074C62.4194 13.5358 61.4168 13.5 60.271 13.5C60.0562 13.5 59.8055 13.5179 59.519 13.5537C59.2684 13.5537 58.9998 13.5537 58.7134 13.5537C58.5701 14.1266 58.4269 14.6995 58.2837 15.2725C58.1763 15.8096 58.0151 16.3825 57.8003 16.9912C57.3348 18.4235 56.7977 19.9811 56.189 21.6641C55.6519 23.1322 55.0073 24.8151 54.2554 26.7129C53.5034 28.6107 52.6619 30.6338 51.731 32.7822C51.5161 34.3219 51.534 35.5036 51.7847 36.3271C52.0711 37.1149 52.4113 37.6878 52.8052 38.0459C53.2707 38.4398 53.8436 38.6546 54.5239 38.6904C55.061 38.762 55.7056 38.583 56.4575 38.1533C57.2453 37.6878 58.0509 37.0791 58.8745 36.3271C59.6981 35.5752 60.5216 34.7516 61.3452 33.8564C62.2046 32.9613 62.9924 32.084 63.7085 31.2246C64.4246 30.3652 65.0513 29.5954 65.5884 28.915C66.1255 28.1989 66.5015 27.6976 66.7163 27.4111ZM91.0474 30.3115C90.5461 31.0277 89.9015 31.9229 89.1138 32.9971C88.326 34.0355 87.5024 35.0918 86.6431 36.166C85.8195 37.2044 84.9959 38.1712 84.1724 39.0664C83.3846 39.9258 82.7222 40.5345 82.1851 40.8926C81.827 41.1074 81.4152 41.2865 80.9497 41.4297C80.4842 41.5729 80.0008 41.6624 79.4995 41.6982C79.034 41.734 78.5864 41.6982 78.1567 41.5908C77.7271 41.5192 77.3511 41.376 77.0288 41.1611C76.7065 40.9105 76.438 40.5524 76.2231 40.0869C76.0441 39.693 75.8651 39.1738 75.686 38.5293C75.5428 37.8848 75.4891 37.0791 75.5249 36.1123C74.6655 37.5446 73.7166 38.6546 72.6782 39.4424C71.6398 40.1943 70.6551 40.7493 69.7241 41.1074C68.6499 41.5013 67.5757 41.734 66.5015 41.8057C66.0002 41.8057 65.4631 41.6266 64.8901 41.2686C64.3172 40.9463 63.8338 40.4271 63.4399 39.7109C63.0461 38.959 62.7954 38.0101 62.688 36.8643C62.5806 35.6826 62.7238 34.2861 63.1177 32.6748C63.619 30.4906 64.4067 28.5033 65.481 26.7129C66.591 24.9225 67.7905 23.4007 69.0796 22.1475C70.3687 20.8584 71.6398 19.8916 72.8931 19.2471C74.1463 18.6025 75.1847 18.3161 76.0083 18.3877C76.9751 18.5667 77.7629 18.8532 78.3716 19.2471C78.8729 19.6051 79.1951 20.1423 79.3384 20.8584C79.5174 21.5387 79.231 22.4518 78.479 23.5977C78.9803 23.4902 79.3921 23.4186 79.7144 23.3828C80.0724 23.347 80.341 23.3291 80.52 23.3291C80.7349 23.3291 80.8781 23.347 80.9497 23.3828C80.9855 23.4544 81.0034 23.6156 81.0034 23.8662C81.0034 24.0811 80.9497 24.4928 80.8423 25.1016C80.7349 25.7103 80.5737 26.5339 80.3589 27.5723C80.144 28.6107 79.8576 29.9535 79.4995 31.6006C79.4279 31.9229 79.3563 32.2272 79.2847 32.5137C79.2489 32.7643 79.1951 33.0329 79.1235 33.3193C79.0877 33.57 79.034 33.8743 78.9624 34.2324C78.8908 34.5905 78.8013 35.0381 78.6938 35.5752C78.658 35.8975 78.6401 36.2555 78.6401 36.6494C78.6759 37.0075 78.7476 37.3477 78.855 37.6699C78.9624 37.9922 79.1235 38.2607 79.3384 38.4756C79.589 38.6546 79.9292 38.7441 80.3589 38.7441C80.717 38.7441 81.1825 38.5293 81.7554 38.0996C82.3283 37.6341 82.937 37.0612 83.5815 36.3809C84.2261 35.6647 84.8885 34.8949 85.5688 34.0713C86.285 33.2119 86.9474 32.3883 87.5562 31.6006C88.1649 30.8128 88.702 30.1146 89.1675 29.5059C89.6688 28.8971 90.0269 28.4495 90.2417 28.1631C90.5282 27.8408 90.8146 27.6618 91.1011 27.626C91.3875 27.5544 91.6024 27.626 91.7456 27.8408C91.8888 28.0557 91.9067 28.3779 91.7993 28.8076C91.7277 29.2373 91.4771 29.7386 91.0474 30.3115ZM75.3101 32.6748C75.4891 31.9587 75.7039 31.1172 75.9546 30.1504C76.2052 29.1836 76.4201 28.2526 76.5991 27.3574C76.7782 26.4622 76.9035 25.7282 76.9751 25.1553C77.0825 24.5465 77.0646 24.2601 76.9214 24.2959C76.7424 24.3317 76.5454 24.3854 76.3306 24.457C76.1515 24.5286 75.9188 24.5824 75.6323 24.6182C75.3459 24.654 75.0594 24.7077 74.7729 24.7793C75.0594 24.2064 75.2205 23.7409 75.2563 23.3828C75.328 22.9889 75.3459 22.6846 75.3101 22.4697C75.2743 22.2191 75.2026 22.0221 75.0952 21.8789C74.7013 21.5566 74.0031 21.8252 73.0005 22.6846C72.0337 23.5081 70.9058 25.0479 69.6167 27.3037C69.0796 28.2347 68.6499 29.2373 68.3276 30.3115C68.0054 31.3499 67.7726 32.3346 67.6294 33.2656C67.522 34.1966 67.5041 35.0202 67.5757 35.7363C67.6473 36.4167 67.7905 36.8643 68.0054 37.0791C68.3993 37.473 68.8468 37.6699 69.3481 37.6699C69.8494 37.6341 70.3507 37.4909 70.8521 37.2402C71.3892 36.9538 71.9084 36.5957 72.4097 36.166C72.9468 35.7363 73.4123 35.2887 73.8062 34.8232C74.2358 34.3577 74.576 33.9281 74.8267 33.5342C75.1131 33.1403 75.2743 32.8538 75.3101 32.6748ZM105.979 38.4219C105.442 38.7083 105.084 38.9769 104.905 39.2275C104.762 39.4782 104.565 39.693 104.314 39.8721C104.063 40.0511 103.831 40.1585 103.616 40.1943C103.437 40.2301 103.258 40.3913 103.079 40.6777C102.542 40.7493 102.094 40.8926 101.736 41.1074C101.593 41.0358 101.431 41.0179 101.252 41.0537C101.073 41.0895 100.894 41.1253 100.715 41.1611C100.572 41.1969 100.411 41.2148 100.232 41.2148C100.089 41.2148 99.9455 41.1432 99.8022 41C99.5874 41.0716 99.3188 41.1074 98.9966 41.1074C98.6743 41.1432 98.3341 41.179 97.9761 41.2148C97.6538 41.2507 97.3315 41.2865 97.0093 41.3223C96.7228 41.3939 96.508 41.4655 96.3647 41.5371C95.8634 41.3581 95.5054 41.3223 95.2905 41.4297C95.1115 41.5729 94.9683 41.6445 94.8608 41.6445C94.4312 41.6445 94.1805 41.6087 94.1089 41.5371C94.0373 41.5013 93.9657 41.4655 93.894 41.4297C93.3927 41.3939 93.0884 41.3402 92.981 41.2686C92.8735 41.1969 92.7303 41.2148 92.5513 41.3223C92.4797 41.1432 92.3722 41.0179 92.229 40.9463C92.0858 40.8389 91.9604 40.7314 91.853 40.624C91.7456 40.4808 91.6561 40.3734 91.5845 40.3018C91.5487 40.1943 91.4412 40.1227 91.2622 40.0869C91.3338 39.7646 91.3517 39.4424 91.3159 39.1201C91.3159 38.7979 91.298 38.4756 91.2622 38.1533C91.3338 37.9743 91.4412 37.849 91.5845 37.7773C91.7635 37.7057 91.8888 37.5804 91.9604 37.4014C92.3185 37.473 92.5513 37.4551 92.6587 37.3477C92.8019 37.2044 92.981 37.1149 93.1958 37.0791C93.4823 37.0791 93.7508 37.1149 94.0015 37.1865C94.2521 37.2223 94.5028 37.1507 94.7534 36.9717C94.8966 37.0075 95.022 37.0791 95.1294 37.1865C95.2368 37.2581 95.38 37.2581 95.5591 37.1865C95.8097 37.1149 95.8813 36.9001 95.7739 36.542C95.7023 36.1839 95.6665 35.9154 95.6665 35.7363C95.6665 35.4857 95.6665 35.235 95.6665 34.9844C95.7023 34.7337 95.6307 34.5189 95.4517 34.3398C95.5591 34.0176 95.6128 33.6774 95.6128 33.3193C95.6486 32.9613 95.5591 32.639 95.3442 32.3525C95.4517 31.9945 95.4696 31.5827 95.3979 31.1172C95.3621 30.6517 95.2726 30.2399 95.1294 29.8818C95.2726 29.7744 95.3442 29.6312 95.3442 29.4521C95.38 29.2731 95.38 29.0941 95.3442 28.915C95.3084 28.736 95.2726 28.557 95.2368 28.3779C95.2368 28.1631 95.2726 27.984 95.3442 27.8408C95.3084 27.6976 95.2547 27.5902 95.1831 27.5186C95.1115 27.4111 95.0399 27.3037 94.9683 27.1963C95.0399 27.0889 95.0757 26.9814 95.0757 26.874C95.1115 26.7308 95.1652 26.6055 95.2368 26.498C95.1652 26.1758 95.1473 25.8535 95.1831 25.5312C95.2547 25.1732 95.2368 24.833 95.1294 24.5107C94.9504 23.9736 94.8608 23.4902 94.8608 23.0605C94.8608 22.6309 94.8608 22.1833 94.8608 21.7178C94.8966 21.2165 94.9504 20.751 95.022 20.3213C95.0936 19.8558 95.1652 19.4798 95.2368 19.1934C95.0936 18.9069 95.0041 18.5667 94.9683 18.1729C94.9683 17.779 94.9683 17.3851 94.9683 16.9912C95.0041 16.5615 95.0399 16.1497 95.0757 15.7559C95.1115 15.3262 95.1294 14.9502 95.1294 14.6279C94.9504 13.9834 94.8787 13.5179 94.9146 13.2314C94.9504 12.9092 94.9683 12.5869 94.9683 12.2646C94.9683 12.0856 94.9504 11.9245 94.9146 11.7812C94.8787 11.6022 94.9146 11.4232 95.022 11.2441C95.0578 10.7786 95.022 10.3669 94.9146 10.0088C94.8429 9.65072 94.8787 9.38216 95.022 9.20312C94.9862 9.02409 94.9146 8.86296 94.8071 8.71973C94.6997 8.5765 94.6102 8.41536 94.5386 8.23633C94.5386 8.0931 94.5744 7.98568 94.646 7.91406C94.7176 7.80664 94.7892 7.68132 94.8608 7.53809C94.7892 7.35905 94.6818 7.19792 94.5386 7.05469C94.4312 6.91146 94.3595 6.73242 94.3237 6.51758C94.1447 6.37435 93.9657 6.33854 93.7866 6.41016C93.6076 6.44596 93.4823 6.37435 93.4106 6.19531C92.8019 6.15951 92.3364 6.1237 92.0142 6.08789C91.6919 6.01628 91.4412 5.87305 91.2622 5.6582C91.0832 5.6224 90.9399 5.6403 90.8325 5.71191C90.7609 5.78353 90.6535 5.80143 90.5103 5.76562C90.367 5.55078 90.1164 5.46126 89.7583 5.49707C89.436 5.49707 89.2033 5.38965 89.0601 5.1748C88.8094 5.24642 88.5946 5.24642 88.4155 5.1748C88.2365 5.10319 88.0037 5.06738 87.7173 5.06738C87.7173 4.78092 87.6278 4.60189 87.4487 4.53027C87.2697 4.45866 87.1265 4.33333 87.019 4.1543C87.0549 3.86784 87.0369 3.59928 86.9653 3.34863C86.8937 3.06217 86.8758 2.77572 86.9116 2.48926C87.0907 2.2028 87.3055 1.97005 87.5562 1.79102C87.8068 1.61198 88.0754 1.43294 88.3618 1.25391C88.6841 1.32552 89.0243 1.34342 89.3823 1.30762C89.7762 1.27181 90.1164 1.36133 90.4028 1.57617C90.8325 1.89844 91.119 2.05957 91.2622 2.05957C91.4412 2.02376 91.6382 2.23861 91.853 2.7041C92.2469 2.66829 92.5692 2.6862 92.8198 2.75781C93.0705 2.82943 93.339 2.88314 93.6255 2.91895C93.7329 2.91895 93.8403 2.90104 93.9478 2.86523C94.0552 2.79362 94.1805 2.77572 94.3237 2.81152C94.5028 2.81152 94.646 2.84733 94.7534 2.91895C94.8608 2.99056 94.9862 3.04427 95.1294 3.08008C95.4517 3.15169 95.7739 3.1696 96.0962 3.13379C96.4543 3.09798 96.7944 3.08008 97.1167 3.08008C97.2957 3.08008 97.4748 3.11589 97.6538 3.1875C97.8687 3.22331 98.0656 3.22331 98.2446 3.1875C98.3521 3.1875 98.4416 3.1696 98.5132 3.13379C98.6206 3.06217 98.728 3.02637 98.8354 3.02637C98.9787 2.99056 99.104 2.99056 99.2114 3.02637C99.3547 3.06217 99.48 3.06217 99.5874 3.02637C99.7664 2.95475 99.9276 2.86523 100.071 2.75781C100.25 2.65039 100.429 2.56087 100.608 2.48926C100.93 2.09538 101.127 1.93424 101.199 2.00586C101.306 2.07747 101.449 2.09538 101.628 2.05957C101.843 2.13118 101.986 2.07747 102.058 1.89844C102.166 1.68359 102.273 1.64779 102.38 1.79102C102.667 1.89844 102.864 2.09538 102.971 2.38184C103.114 2.66829 103.204 2.97266 103.24 3.29492C103.276 3.61719 103.258 3.95736 103.186 4.31543C103.15 4.6377 103.114 4.92415 103.079 5.1748C102.864 5.1748 102.649 5.22852 102.434 5.33594C102.255 5.40755 102.058 5.46126 101.843 5.49707C101.664 5.67611 101.431 5.81934 101.145 5.92676C100.859 5.99837 100.608 6.1237 100.393 6.30273C100.178 6.19531 99.9455 6.17741 99.6948 6.24902C99.48 6.28483 99.2651 6.33854 99.0503 6.41016C98.8713 6.80404 98.8713 7.25163 99.0503 7.75293C98.9429 7.86035 98.9071 8.0752 98.9429 8.39746C98.9787 8.68392 98.9787 8.91667 98.9429 9.0957C98.9429 9.20312 98.9071 9.45378 98.8354 9.84766C98.7996 10.2057 98.9071 10.4027 99.1577 10.4385C98.9787 10.8682 98.925 11.2441 98.9966 11.5664C99.104 11.8887 99.1577 12.2646 99.1577 12.6943C99.1219 12.7301 99.0861 12.8376 99.0503 13.0166C99.0503 13.1598 99.0503 13.3389 99.0503 13.5537C99.0503 13.7327 99.0503 13.9118 99.0503 14.0908C99.0503 14.234 99.0503 14.3415 99.0503 14.4131C99.1219 14.6995 99.1577 14.9144 99.1577 15.0576C99.1577 15.3441 99.104 15.6126 98.9966 15.8633C98.925 16.0781 98.8713 16.3288 98.8354 16.6152C98.8354 16.7585 98.8713 16.9017 98.9429 17.0449C99.0145 17.1523 99.0503 17.2777 99.0503 17.4209C99.0861 17.7074 99.0503 18.0296 98.9429 18.3877C98.8354 18.71 98.8713 19.0143 99.0503 19.3008C99.0861 19.4798 99.0324 19.5872 98.8892 19.623C98.7459 19.6589 98.7101 19.7842 98.7817 19.999C98.6743 20.1064 98.6743 20.2139 98.7817 20.3213C98.8892 20.3929 98.9429 20.4824 98.9429 20.5898C98.8713 21.0553 98.8713 21.4313 98.9429 21.7178C99.0145 21.9684 99.0503 22.2191 99.0503 22.4697C99.0503 22.6488 99.0324 22.8457 98.9966 23.0605C98.9608 23.2396 98.9787 23.4186 99.0503 23.5977C99.1219 23.8841 99.3009 24.1527 99.5874 24.4033C99.5874 24.833 99.5695 25.2627 99.5337 25.6924C99.4979 26.0863 99.5158 26.4801 99.5874 26.874C99.6232 27.0889 99.6769 27.3037 99.7485 27.5186C99.8201 27.6976 99.8739 27.8945 99.9097 28.1094C99.9097 28.36 99.8918 28.6465 99.856 28.9688C99.8201 29.2552 99.8381 29.488 99.9097 29.667C99.8022 29.7744 99.8022 29.8997 99.9097 30.043C100.017 30.1862 100.071 30.2757 100.071 30.3115C100.035 30.8486 100.035 31.2246 100.071 31.4395C100.142 31.6543 100.214 31.8512 100.286 32.0303C99.9992 32.3525 99.9097 32.7106 100.017 33.1045C100.125 33.4626 100.178 33.8385 100.178 34.2324C100.214 34.5547 100.196 34.8053 100.125 34.9844C100.053 35.1634 100.107 35.4141 100.286 35.7363C100.429 35.987 100.572 36.2376 100.715 36.4883C100.859 36.7031 101.038 36.9001 101.252 37.0791C101.252 37.1149 101.36 37.1686 101.575 37.2402C101.825 37.276 101.986 37.2939 102.058 37.2939C102.237 37.3298 102.327 37.2581 102.327 37.0791C102.362 36.9001 102.47 36.8105 102.649 36.8105C102.756 36.7389 102.846 36.6494 102.917 36.542C102.989 36.4346 103.079 36.3451 103.186 36.2734C103.616 36.166 103.831 36.0944 103.831 36.0586C103.831 35.987 103.884 35.9512 103.992 35.9512C104.386 35.9154 104.708 36.0944 104.958 36.4883C105.245 36.8464 105.478 37.1507 105.657 37.4014C105.728 37.5088 105.764 37.6878 105.764 37.9385C105.764 38.1533 105.836 38.3145 105.979 38.4219ZM134.285 4.79883C133.891 5.04948 133.694 5.24642 133.694 5.38965C133.73 5.49707 133.676 5.56868 133.533 5.60449C133.354 5.67611 133.193 5.80143 133.049 5.98047C132.942 6.1237 132.799 6.23112 132.62 6.30273C132.226 6.41016 132.011 6.49967 131.975 6.57129C131.939 6.6071 131.886 6.625 131.814 6.625C131.635 6.66081 131.42 6.66081 131.169 6.625C130.919 6.55339 130.722 6.55339 130.579 6.625C130.256 6.55339 129.934 6.57129 129.612 6.67871C129.29 6.75033 128.967 6.78613 128.645 6.78613C128.323 6.82194 127.983 6.82194 127.625 6.78613C127.302 6.71452 126.98 6.66081 126.658 6.625C126.371 6.55339 126.085 6.44596 125.798 6.30273C125.548 6.1237 125.279 5.98047 124.993 5.87305L124.456 5.55078C124.026 5.33594 123.757 5.21061 123.65 5.1748C123.578 5.139 123.453 5.139 123.274 5.1748C123.167 4.95996 123.005 4.81673 122.791 4.74512C122.576 4.6377 122.379 4.49447 122.2 4.31543C121.949 4.38704 121.716 4.38704 121.501 4.31543C121.322 4.24382 121.108 4.1901 120.857 4.1543C120.606 4.08268 120.302 4.06478 119.944 4.10059C119.622 4.13639 119.371 4.04688 119.192 3.83203C119.084 3.90365 118.995 3.99316 118.923 4.10059C118.888 4.1722 118.816 4.24382 118.708 4.31543C118.458 4.20801 118.225 4.20801 118.01 4.31543C117.903 4.35124 117.724 4.40495 117.473 4.47656C117.258 4.54818 117.026 4.6377 116.775 4.74512C116.56 4.81673 116.345 4.90625 116.13 5.01367C115.916 5.08529 115.79 5.139 115.754 5.1748C115.575 5.10319 115.271 5.10319 114.841 5.1748C114.447 5.21061 114.143 5.24642 113.928 5.28223C113.749 5.28223 113.624 5.37174 113.552 5.55078C113.516 5.69401 113.373 5.72982 113.123 5.6582C112.908 5.76562 112.818 5.94466 112.854 6.19531C112.568 6.15951 112.317 6.24902 112.102 6.46387C111.923 6.6429 111.762 6.87565 111.619 7.16211C111.475 7.44857 111.368 7.75293 111.296 8.0752C111.225 8.39746 111.171 8.66602 111.135 8.88086C111.135 8.95247 111.099 9.0778 111.028 9.25684C110.992 9.40007 110.974 9.50749 110.974 9.5791C111.046 9.97298 111.046 10.2236 110.974 10.3311C110.938 10.4027 110.92 10.4922 110.92 10.5996C110.92 10.8145 110.938 11.0472 110.974 11.2979C111.01 11.5485 111.064 11.7633 111.135 11.9424C111.207 12.2288 111.278 12.5153 111.35 12.8018C111.458 13.0524 111.368 13.2852 111.082 13.5C111.225 13.9297 111.278 14.4847 111.243 15.165C111.243 15.8096 111.386 16.293 111.672 16.6152C111.708 16.7227 111.708 16.8838 111.672 17.0986C111.637 17.3135 111.654 17.4567 111.726 17.5283C111.941 17.5999 112.138 17.5999 112.317 17.5283C112.496 17.4209 112.675 17.3493 112.854 17.3135C112.961 17.3135 113.069 17.3314 113.176 17.3672C113.284 17.403 113.391 17.4209 113.499 17.4209C113.678 17.4209 113.839 17.3851 113.982 17.3135C114.161 17.2419 114.34 17.2061 114.519 17.2061C114.949 17.2061 115.378 17.2419 115.808 17.3135C116.274 17.3851 116.739 17.3851 117.205 17.3135C117.276 17.4925 117.366 17.5641 117.473 17.5283C117.616 17.4925 117.76 17.4925 117.903 17.5283C118.082 17.5999 118.261 17.6715 118.44 17.7432C118.619 17.8148 118.798 17.8864 118.977 17.958C119.084 17.9938 119.192 18.0117 119.299 18.0117C119.407 17.9759 119.514 17.9759 119.622 18.0117C120.266 18.2624 120.767 18.3877 121.125 18.3877C121.484 18.3519 121.842 18.3698 122.2 18.4414C122.737 18.6204 123.059 18.71 123.167 18.71C123.274 18.6742 123.381 18.6562 123.489 18.6562C123.632 18.6204 123.775 18.6025 123.918 18.6025C124.097 18.6025 124.348 18.6562 124.67 18.7637C125.064 18.5488 125.458 18.4772 125.852 18.5488C126.246 18.6204 126.64 18.6562 127.034 18.6562C127.213 18.6562 127.374 18.6204 127.517 18.5488C127.696 18.4772 127.875 18.4772 128.054 18.5488C128.269 18.7637 128.43 18.8711 128.538 18.8711C128.645 18.8353 128.735 18.8353 128.806 18.8711C128.914 18.9427 129.003 19.0322 129.075 19.1396C129.146 19.2113 129.272 19.2292 129.451 19.1934C129.486 19.4082 129.451 19.641 129.343 19.8916C129.272 20.1064 129.307 20.3213 129.451 20.5361C129.272 20.6794 129.093 20.8226 128.914 20.9658C128.77 21.109 128.609 21.2344 128.43 21.3418C128.359 21.5208 128.269 21.7178 128.162 21.9326C128.09 22.1475 127.965 22.3265 127.786 22.4697C127.571 22.3265 127.338 22.2728 127.087 22.3086C126.873 22.3444 126.658 22.3265 126.443 22.2549C126.3 22.2191 126.174 22.1833 126.067 22.1475C125.959 22.0758 125.834 22.0042 125.691 21.9326C125.333 21.861 124.921 21.8252 124.456 21.8252C124.026 21.7894 123.65 21.861 123.328 22.04C123.041 21.9326 122.737 21.8789 122.415 21.8789C122.128 21.8431 121.842 21.7715 121.555 21.6641C121.448 21.6641 121.34 21.682 121.233 21.7178C121.125 21.7536 121.036 21.7894 120.964 21.8252C120.75 21.7536 120.499 21.682 120.212 21.6104C119.962 21.5387 119.711 21.485 119.46 21.4492C119.281 21.4134 119.084 21.4134 118.87 21.4492C118.655 21.4492 118.44 21.4134 118.225 21.3418C117.616 21.127 117.133 21.0374 116.775 21.0732C116.453 21.0732 116.148 20.9837 115.862 20.8047C115.683 20.8763 115.468 20.93 115.217 20.9658C114.967 20.9658 114.734 21.0016 114.519 21.0732C114.304 21.109 114.107 21.1807 113.928 21.2881C113.785 21.3955 113.695 21.5745 113.66 21.8252C113.481 21.8252 113.302 21.861 113.123 21.9326C112.979 22.0042 112.818 22.04 112.639 22.04C112.532 22.3981 112.478 22.7383 112.478 23.0605C112.478 23.3828 112.424 23.7051 112.317 24.0273C112.138 24.6719 112.102 25.2806 112.209 25.8535C112.281 26.0684 112.335 26.2474 112.371 26.3906C112.442 26.5339 112.442 26.7308 112.371 26.9814C112.263 27.3037 112.192 27.5365 112.156 27.6797C112.156 27.8229 112.156 27.9482 112.156 28.0557C112.156 28.1631 112.174 28.2884 112.209 28.4316C112.245 28.5749 112.281 28.7897 112.317 29.0762C112.317 29.3268 112.317 29.6312 112.317 29.9893C112.317 30.3473 112.281 30.6517 112.209 30.9023C112.066 31.3678 112.013 31.6722 112.048 31.8154C112.12 31.9229 112.156 32.0303 112.156 32.1377C112.192 32.5316 112.209 32.9255 112.209 33.3193C112.245 33.7132 112.281 34.1071 112.317 34.501C112.317 34.8232 112.317 35.1097 112.317 35.3604C112.317 35.611 112.406 35.8796 112.585 36.166C112.514 36.3451 112.478 36.5778 112.478 36.8643C112.514 37.1507 112.514 37.4014 112.478 37.6162C112.442 37.8311 112.389 38.0638 112.317 38.3145C112.245 38.5293 112.263 38.7441 112.371 38.959C112.156 39.0306 112.066 39.1201 112.102 39.2275C112.138 39.335 112.156 39.4782 112.156 39.6572C112.084 39.8363 111.977 39.9795 111.833 40.0869C111.726 40.1943 111.619 40.3376 111.511 40.5166C111.511 40.6598 111.529 40.8031 111.565 40.9463C111.601 41.0895 111.601 41.2507 111.565 41.4297C111.493 41.7161 111.332 41.9131 111.082 42.0205C110.831 42.1637 110.706 42.4144 110.706 42.7725C110.419 42.7008 110.186 42.7188 110.007 42.8262C109.864 42.9336 109.721 42.9515 109.578 42.8799C109.255 42.8441 109.023 42.7008 108.879 42.4502C108.772 42.2354 108.521 42.1637 108.127 42.2354C108.163 42.0921 108.11 41.9489 107.966 41.8057C107.859 41.6624 107.787 41.5013 107.751 41.3223C107.68 41.0716 107.68 40.8389 107.751 40.624C107.859 40.3734 107.966 40.1406 108.074 39.9258C108.217 39.7109 108.342 39.514 108.45 39.335C108.593 39.1201 108.682 38.8874 108.718 38.6367C108.79 38.207 108.772 37.7594 108.665 37.2939C108.593 36.7926 108.557 36.3092 108.557 35.8438C108.557 35.6647 108.539 35.3424 108.503 34.877C108.468 34.4115 108.432 33.946 108.396 33.4805C108.36 32.9792 108.324 32.5316 108.289 32.1377C108.289 31.708 108.324 31.4395 108.396 31.332C108.396 31.1172 108.378 30.8665 108.342 30.5801C108.342 30.2936 108.342 30.0967 108.342 29.9893C108.306 29.6312 108.306 29.3805 108.342 29.2373C108.414 29.0941 108.45 28.9688 108.45 28.8613C108.486 28.6107 108.45 28.3421 108.342 28.0557C108.271 27.7692 108.289 27.5186 108.396 27.3037C108.503 27.0889 108.521 26.9277 108.45 26.8203C108.414 26.7129 108.378 26.6055 108.342 26.498C108.306 26.3548 108.306 26.2295 108.342 26.1221C108.378 26.0146 108.396 25.8893 108.396 25.7461C108.396 25.6387 108.36 25.5312 108.289 25.4238C108.253 25.2806 108.235 25.1553 108.235 25.0479C108.378 24.6182 108.414 24.3317 108.342 24.1885C108.271 24.0094 108.253 23.8483 108.289 23.7051C108.468 23.347 108.521 23.0605 108.45 22.8457C108.378 22.5951 108.396 22.3623 108.503 22.1475C108.468 22.0042 108.396 21.9147 108.289 21.8789C108.181 21.8431 108.074 21.8073 107.966 21.7715C108.002 21.485 107.948 21.2523 107.805 21.0732C107.662 20.8584 107.519 20.6436 107.375 20.4287C107.268 20.2139 107.232 19.9632 107.268 19.6768C107.304 19.3903 107.537 18.9785 107.966 18.4414C107.859 18.0475 107.787 17.6536 107.751 17.2598C107.751 16.8659 107.716 16.472 107.644 16.0781C107.608 15.9349 107.572 15.8096 107.537 15.7021C107.501 15.5947 107.483 15.4873 107.483 15.3799C107.483 15.165 107.501 14.9681 107.537 14.7891C107.608 14.61 107.644 14.431 107.644 14.252C107.644 14.0729 107.608 13.9118 107.537 13.7686C107.465 13.6253 107.411 13.4642 107.375 13.2852C107.375 13.1419 107.393 13.0166 107.429 12.9092C107.465 12.766 107.465 12.6227 107.429 12.4795C107.429 12.3721 107.393 12.2646 107.322 12.1572C107.286 12.0498 107.25 11.9424 107.214 11.835C107.143 11.6201 107.089 11.3695 107.053 11.083C107.053 10.7607 107.071 10.4385 107.107 10.1162C107.143 9.79395 107.196 9.48958 107.268 9.20312C107.34 8.88086 107.429 8.63021 107.537 8.45117C107.537 8.27214 107.519 8.14681 107.483 8.0752C107.447 8.00358 107.411 7.89616 107.375 7.75293C107.698 7.43066 107.877 7.09049 107.913 6.73242C107.984 6.33854 108.074 5.94466 108.181 5.55078C108.217 5.40755 108.324 5.24642 108.503 5.06738C108.682 4.88835 108.879 4.72721 109.094 4.58398C109.345 4.40495 109.578 4.24382 109.792 4.10059C110.007 3.95736 110.186 3.83203 110.33 3.72461C110.652 3.47396 110.956 3.2054 111.243 2.91895C111.529 2.63249 111.816 2.34603 112.102 2.05957C112.281 2.09538 112.442 2.05957 112.585 1.95215C112.764 1.84473 112.944 1.77311 113.123 1.7373C113.481 1.84473 113.839 1.86263 114.197 1.79102C114.555 1.68359 114.913 1.57617 115.271 1.46875C115.665 1.32552 116.005 1.18229 116.292 1.03906C116.614 0.860026 116.811 0.716797 116.882 0.609375C117.563 0.752604 118.243 0.770508 118.923 0.663086C119.604 0.555664 120.284 0.501953 120.964 0.501953C121.072 0.53776 121.179 0.573568 121.287 0.609375C121.43 0.609375 121.573 0.573568 121.716 0.501953C122.003 0.716797 122.343 0.860026 122.737 0.931641C123.131 1.00326 123.507 1.03906 123.865 1.03906C123.972 1.11068 124.08 1.18229 124.187 1.25391C124.294 1.32552 124.366 1.43294 124.402 1.57617C124.796 1.61198 125.136 1.7194 125.422 1.89844C125.745 2.07747 126.049 2.31022 126.335 2.59668C126.586 2.56087 126.837 2.56087 127.087 2.59668C127.338 2.63249 127.571 2.73991 127.786 2.91895C128.072 2.81152 128.359 2.81152 128.645 2.91895C128.967 2.99056 129.272 3.00846 129.558 2.97266C129.845 2.97266 130.131 2.93685 130.417 2.86523C130.704 2.79362 130.99 2.73991 131.277 2.7041C131.456 2.7041 131.617 2.72201 131.76 2.75781C131.939 2.79362 132.118 2.77572 132.297 2.7041C132.62 2.99056 132.996 3.24121 133.425 3.45605C133.891 3.6709 134.177 4.01107 134.285 4.47656V4.79883Z" fill="#6C63FF"/>
</svg>
